<svg xmlns="http://www.w3.org/2000/svg" width="980" height="220" viewBox="0 0 980 220" role="img" aria-label="Growth timeline">
  <rect width="980" height="220" rx="16" fill="#161b22"/>
  <rect x="1" y="1" width="978" height="218" rx="15" fill="none" stroke="#30363d" stroke-width="2"/>
  <text x="36" y="42" font-family="Segoe UI, Helvetica, Arial, sans-serif" font-size="20" font-weight="700" fill="#ffa657">Growth path</text>

  <line x1="60" y1="120" x2="920" y2="120" stroke="#30363d" stroke-width="3"/>

  <!-- nodes -->
  <g font-family="Consolas, Menlo, monospace" font-size="11">
    <circle cx="80" cy="120" r="8" fill="#ffa657"/>
    <text x="80" y="95" text-anchor="middle" fill="#a5d6ff">2024-07</text>
    <text x="80" y="155" text-anchor="middle" fill="#c9d1d9">First</text>
    <text x="80" y="170" text-anchor="middle" fill="#c9d1d9">commit</text>

    <circle cx="230" cy="120" r="8" fill="#a5d6ff"/>
    <text x="230" y="95" text-anchor="middle" fill="#a5d6ff">2025-04</text>
    <text x="230" y="155" text-anchor="middle" fill="#c9d1d9">Kafka</text>
    <text x="230" y="170" text-anchor="middle" fill="#c9d1d9">Car Price</text>

    <circle cx="380" cy="120" r="8" fill="#ffa657"/>
    <text x="380" y="95" text-anchor="middle" fill="#a5d6ff">2025-10</text>
    <text x="380" y="155" text-anchor="middle" fill="#c9d1d9">Threat</text>
    <text x="380" y="170" text-anchor="middle" fill="#c9d1d9">Intel + BI</text>

    <circle cx="530" cy="120" r="8" fill="#63b985"/>
    <text x="530" y="95" text-anchor="middle" fill="#a5d6ff">2025-11</text>
    <text x="530" y="155" text-anchor="middle" fill="#c9d1d9">Lakehouse</text>
    <text x="530" y="170" text-anchor="middle" fill="#c9d1d9">Iceberg</text>

    <circle cx="680" cy="120" r="8" fill="#ffa657"/>
    <text x="680" y="95" text-anchor="middle" fill="#a5d6ff">2025-12</text>
    <text x="680" y="155" text-anchor="middle" fill="#c9d1d9">RenewStation</text>
    <text x="680" y="170" text-anchor="middle" fill="#c9d1d9">R² 99.8%</text>

    <circle cx="830" cy="120" r="8" fill="#a5d6ff"/>
    <text x="830" y="95" text-anchor="middle" fill="#a5d6ff">2026-04</text>
    <text x="830" y="155" text-anchor="middle" fill="#c9d1d9">EDUPATH</text>
    <text x="830" y="170" text-anchor="middle" fill="#c9d1d9">live</text>
  </g>
</svg>
